<svg xmlns="http://www.w3.org/2000/svg" xmlns:xlink="http://www.w3.org/1999/xlink" viewBox="0 0 1500 400"><defs><style>.a,.h{fill:none;}.b{fill:#303947;}.c{fill:#fff;}.d{fill:#da4527;}.e{clip-path:url(#a);}.f{fill:#272f3c;}.g{fill:#8bb7e2;}.h{stroke:#8bb7e2;stroke-miterlimit:10;stroke-width:4.2874px;}</style><clipPath id="a"><rect class="a" x="159" y="59.43" width="446.87" height="281.9"/></clipPath></defs><title>passport-web-splash-en</title><rect class="b" width="1500" height="400"/><path class="c" d="M690.17,121.72H679.73v10.09h6.92v8.91h-6.92V151.4h10.44v8.91H668.94V113.4h21.23Z"/><path class="c" d="M692.34,113.4h10.79l3.34,12.37,3.81-12.37h10.38l-8.39,22.22,8,24.69H709.52L706,147.94l-3.93,12.37H691.75l8.44-23.51Z"/><path class="c" d="M736.85,113.4c5.22,0,10.56,2.58,10.56,8.56v12.9c0,6-5.34,8.56-10.56,8.56h-3v16.89H723.07V113.4Zm-1.47,21.11a1.65,1.65,0,0,0,1.88-1.38,1.4,1.4,0,0,0,0-.5v-8.44a1.65,1.65,0,0,0-1.38-1.88,1.4,1.4,0,0,0-.5,0h-1.52v12.2Z"/><path class="c" d="M772.62,121.72H762.18v10.09h6.92v8.91h-6.92V151.4h10.44v8.91H751.39V113.4h21.23Z"/><path class="c" d="M791.14,113.4c5.16,0,10.5,2.58,10.5,8.56v10.2c0,2.23-1.41,4.22-4.16,5.45,2.76,1.23,4.4,3.28,4.4,5.45v9.38a27.9987,27.9987,0,0,0,1.35,7.86H793.08a20.7716,20.7716,0,0,1-1.35-7.27v-9.56c0-1-.76-1.82-2.23-1.82h-2.64V160.3H776.07V113.4Zm-1.47,19.94c1.17,0,1.82-.53,1.82-1.88v-7.27c0-1.35-.64-1.88-1.82-1.88h-2.82v11Z"/><path class="c" d="M806,160.31V113.4h10.85v46.91Z"/><path class="c" d="M842.69,121.72H832.25v10.09h6.92v8.91h-6.92V151.4h10.44v8.91H821.46V113.4h21.23Z"/><path class="c" d="M864.15,113.4h9.62v46.91h-9.44l-8.56-22.63v22.63h-9.62V113.4H856l8.15,23Z"/><path class="c" d="M890.89,152a2,2,0,0,0,2.2193-1.7536l.0007-.0064a1.9219,1.9219,0,0,0,0-.24v-7.62h10.67v9c0,4.75-5.1,9.79-12.9,9.79s-13.25-5-13.25-9.79V122.31c0-4.75,5.34-9.79,13.25-9.79s12.9,5,12.9,9.79v9H893.12v-7.62a2,2,0,0,0-2-2h-.24a2.07,2.07,0,0,0-2.328,1.7748l-.002.0152a1.4719,1.4719,0,0,0,0,.21V150a2.08,2.08,0,0,0,2.14,2Z"/><path class="c" d="M928.3,121.72H917.86v10.09h6.92v8.91h-6.92V151.4H928.3v8.91H907.07V113.4H928.3Z"/><path class="c" d="M960,113.4h9.62v46.91H960.2l-8.56-22.63v22.63H942V113.4h9.85l8.15,23Z"/><path class="c" d="M974.21,160.31V113.4h10.85v46.91Z"/><path class="c" d="M1002,161.19c-8.21,0-13.19-4.75-13.19-10.44v-5.63h9.5v3.75a3,3,0,0,0,2.87,3.12,2.7777,2.7777,0,0,0,.41,0,2.68,2.68,0,0,0,3-3c0-3.87-3.28-5.81-8.21-10.38-4.69-4.4-7.21-8.68-7.21-14,0-6.39,4.46-12,13.14-12,7.15,0,12,5.63,12,10.38v5.69h-9.44v-4.16a2.56,2.56,0,0,0-2.4123-2.7l-.0076,0h-.16a2.8,2.8,0,0,0-2.81,2.7c0,3.81,1.35,5.16,7.15,10.32,5,4.52,8.27,9.32,8.27,14.43C1014.91,155.62,1010.33,161.19,1002,161.19Z"/><path class="c" d="M1039.53,121.72h-10.44v10.09H1036v8.91h-6.92V151.4h10.44v8.91h-21.23V113.4h21.23Z"/><path class="c" d="M1059.65,113.4h11.14l-7.21,21.52,8.39,25.39h-11.32l-4.52-17.12-2.29,6v11.14H1043V113.4h10.85v21.17Z"/><path class="c" d="M1086.56,161.19c-7.51,0-13.14-5.63-13.14-10.38V122.9c0-4.75,5.63-10.38,13.14-10.38s13.08,5.63,13.08,10.38v27.91C1099.64,155.56,1094,161.19,1086.56,161.19Zm0-39.46a2,2,0,0,0-2.2193,1.7536l-.0007.0064a1.9219,1.9219,0,0,0,0,.24V150a2.21,2.21,0,0,0,4.4,0V123.72a2,2,0,0,0-2-2h-.18Z"/><path class="c" d="M1127.55,113.4c5.22,0,10.55,2.58,10.55,8.56v12.9c0,6-5.34,8.56-10.55,8.56h-3v16.89h-10.79V113.4Zm-1.47,21.11a1.65,1.65,0,0,0,1.88-1.38,1.4,1.4,0,0,0,0-.5v-8.44a1.65,1.65,0,0,0-1.38-1.88,1.4,1.4,0,0,0-.5,0h-1.53v12.2Z"/><path class="c" d="M1147.54,160.31H1138l7.1-46.91H1158l7.27,46.91h-11.14l-.53-6.74h-5.22Zm3.93-31.08-1.88,14.84h3Z"/><path class="c" d="M1179.74,161.19c-8.21,0-13.19-4.75-13.19-10.44v-5.63h9.5v3.75a3,3,0,0,0,2.87,3.12,2.7791,2.7791,0,0,0,.41,0,2.68,2.68,0,0,0,3-3c0-3.87-3.28-5.81-8.21-10.38-4.69-4.4-7.21-8.68-7.21-14,0-6.39,4.46-12,13.14-12,7.15,0,12,5.63,12,10.38v5.69h-9.44v-4.16a2.56,2.56,0,0,0-2.4123-2.7l-.0077,0H1180a2.8,2.8,0,0,0-2.81,2.7c0,3.81,1.35,5.16,7.15,10.32,5,4.52,8.27,9.32,8.27,14.43C1192.64,155.62,1188.06,161.19,1179.74,161.19Z"/><path class="c" d="M1208.41,161.19c-8.21,0-13.19-4.75-13.19-10.44v-5.63h9.5v3.75a3,3,0,0,0,2.85,3.14,3.0549,3.0549,0,0,0,.43,0,2.68,2.68,0,0,0,3-3c0-3.87-3.28-5.81-8.21-10.38-4.69-4.4-7.21-8.68-7.21-14,0-6.39,4.46-12,13.14-12,7.15,0,12,5.63,12,10.38v5.69h-9.44v-4.16a2.56,2.56,0,0,0-2.4124-2.7l-.0077,0h-.16a2.8,2.8,0,0,0-2.81,2.7c0,3.81,1.35,5.16,7.15,10.32,5,4.52,8.27,9.32,8.27,14.43C1221.31,155.62,1216.74,161.19,1208.41,161.19Z"/><path class="c" d="M1238.49,113.4c5.22,0,10.55,2.58,10.55,8.56v12.9c0,6-5.34,8.56-10.55,8.56h-3v16.89H1224.7V113.4ZM1237,134.51a1.65,1.65,0,0,0,1.88-1.38,1.4,1.4,0,0,0,0-.5v-8.44a1.65,1.65,0,0,0-1.38-1.88,1.4,1.4,0,0,0-.5,0h-1.53v12.2Z"/><path class="c" d="M1265.82,161.19c-7.51,0-13.14-5.63-13.14-10.38V122.9c0-4.75,5.63-10.38,13.14-10.38s13.08,5.63,13.08,10.38v27.91C1278.89,155.56,1273.26,161.19,1265.82,161.19Zm0-39.46a2,2,0,0,0-2.2192,1.7536l-.0007.0064a1.9219,1.9219,0,0,0,0,.24V150a2.21,2.21,0,0,0,4.4,0V123.72a2,2,0,0,0-2-2h-.18Z"/><path class="c" d="M1297.83,113.4c5.16,0,10.5,2.58,10.5,8.56v10.2c0,2.23-1.41,4.22-4.16,5.45,2.76,1.23,4.4,3.28,4.4,5.45v9.38a28.0024,28.0024,0,0,0,1.35,7.86h-10.14a20.7693,20.7693,0,0,1-1.35-7.27v-9.56c0-1-.76-1.82-2.23-1.82h-2.64V160.3h-10.79V113.4Zm-1.47,19.94c1.17,0,1.82-.53,1.82-1.88v-7.27c0-1.35-.64-1.88-1.82-1.88h-2.82v11Z"/><path class="c" d="M1311.44,121.72V113.4h25.39v8.33h-7.15v38.58h-10.79V121.72Z"/><path class="d" d="M681.73,207.75c0,1.23,1.17,2,2.58,2s2.64-.76,2.64-2V172h12.43v36.47c0,6.39-6.16,11.61-15.07,11.61s-15.54-5.22-15.54-11.61V172h13Z"/><path class="d" d="M724.42,172h11.2v46.91H725.24l-10.56-22v22H703.42V172h10.91l10.09,22.46Z"/><path class="d" d="M752.44,208.8h12.2v10.14h-24.8V172h12.61Z"/><path class="d" d="M782.53,220.12c-8.91,0-15.54-5.22-15.54-11.61v-26c0-6.39,6.63-11.61,15.54-11.61s15.54,5.22,15.54,11.61v26C798.06,214.9,791.44,220.12,782.53,220.12Zm0-38.88c-1.47,0-2.64.76-2.64,2v24.51c0,1.23,1.17,2,2.64,2s2.64-.76,2.64-2V183.23c0-1.23-1.17-2-2.64-2Z"/><path class="d" d="M817.59,209.74c1.52,0,2.87-.76,2.87-2V201.3H833.3v7.8c0,4.81-6.16,11-15.72,11s-16-6.22-16-11V181.89c0-4.81,6.51-11,16-11s15.72,6.22,15.72,11v7.8H820.46v-6.45c0-1.23-1.35-2-2.87-2s-2.81.76-2.81,2v24.51C814.78,209,816.07,209.74,817.59,209.74Z"/><path class="d" d="M856.35,172h12.72l-8.68,21.52,10,25.39H857.23l-5.45-16.24-2.17,5.39v10.85H837V172h12.61v19.06Z"/><path class="d" d="M915.22,219h-7.33l-1.41-2.58c-1.11,1.58-5.39,3.75-9,3.75-9.15,0-14.37-5.75-14.37-11V181.89c0-4.81,6.45-11,16-11s15.77,6.22,15.77,11v7.8h-13v-6.45c0-1.23-1.17-2-2.76-2s-2.81.76-2.81,2v24.22c0,1.23,1.17,2.29,3.17,2.29,2.17,0,3.17-1.06,3.17-2.29v-4.63H899.1v-7.39h16.13Z"/><path class="d" d="M936.8,172c6.1,0,11.79,3.81,11.79,9.73v8.44c0,2.23-1.64,4.81-4.87,6,3.22,1.23,5.1,3.87,5.1,6.1V211a22.77,22.77,0,0,0,1.64,7.86H938.62A18.5608,18.5608,0,0,1,937,211.6v-8.33a2.55,2.55,0,0,0-2.6368-2.46H931.49v18.06H918.92V172Zm-2.23,20c1.41,0,2.17-.53,2.17-1.88v-6.69c0-1.35-.76-1.88-2.17-1.88h-3V192Z"/><path class="d" d="M977.32,181.24h-12.2v9.21h8v8.91h-8v9.73h12.2v9.85h-24.8V172h24.8Z"/><path class="d" d="M990,219H978.8l8.31-47h15.07l8.44,46.91h-13l-.64-6.16h-6Zm4.28-31.08-1.93,14.84h3.58Z"/><path class="d" d="M1009.4,181.53V172h30.08v9.5h-8.62v37.41h-12.61V181.53Z"/><path class="d" d="M686.83,230.67c6.1,0,11.79,3.81,11.79,9.73v8.44c0,2.23-1.64,4.81-4.87,6,3.23,1.23,5.1,3.87,5.1,6.1v8.74a22.7721,22.7721,0,0,0,1.64,7.86H688.65a18.561,18.561,0,0,1-1.58-7.27V262a2.55,2.55,0,0,0-2.6368-2.46H681.56V277.6H668.94V230.67Zm-2.23,19.94c1.41,0,2.17-.53,2.17-1.88V242c0-1.35-.76-1.88-2.17-1.88h-3v10.44Z"/><path class="d" d="M727.35,239.88h-12.2v9.21h8V258h-8v9.73h12.2v9.85h-24.8V230.67h24.8Z"/><path class="d" d="M745.41,278.76c-9.62,0-15.42-4.34-15.42-11.61v-5.34h11v4c0,1.82,1.41,3.11,3.81,3.11s3.52-1.06,3.52-3c0-3.87-2.93-5.34-9.56-9.5-5.92-3.69-8.44-9-8.44-14.31,0-6.39,5.22-12.61,15.42-12.61,8.27,0,14,5.22,14,11.61v4.75h-11V242a2.77,2.77,0,0,0-2.8287-2.71H745.74c-1.64,0-3.34.94-3.34,2.76,0,4.69,1.64,5.45,8.33,9.09,6.16,3.34,9.68,9.21,9.68,15C760.42,272.6,755.08,278.76,745.41,278.76Z"/><path class="d" d="M778.42,278.76c-8.91,0-15.54-5.22-15.54-11.61v-26c0-6.39,6.63-11.61,15.54-11.61S794,234.72,794,241.11v26C794,273.54,787.33,278.76,778.42,278.76Zm0-38.88c-1.47,0-2.64.76-2.64,2v24.51c0,1.23,1.17,2,2.64,2s2.64-.76,2.64-2V241.87C781.06,240.64,779.89,239.88,778.42,239.88Z"/><path class="d" d="M815.71,230.67c6.1,0,11.79,3.81,11.79,9.73v8.44c0,2.23-1.64,4.81-4.87,6,3.22,1.23,5.1,3.87,5.1,6.1v8.74a22.7721,22.7721,0,0,0,1.64,7.86H817.53a18.561,18.561,0,0,1-1.58-7.27V262a2.55,2.55,0,0,0-2.6368-2.46H810.44V277.6H797.83V230.67Zm-2.23,19.94c1.41,0,2.17-.53,2.17-1.88V242c0-1.35-.76-1.88-2.17-1.88h-3v10.44Z"/><path class="d" d="M830.2,240.17v-9.5h30.08v9.5h-8.62v37.41H839.05V240.17Z"/><path class="d" d="M892.53,230.67c6,0,11.2,3.81,11.2,9.73v27.44c0,5.92-5.16,9.73-11.2,9.73H874.7v-46.9Zm-2.81,37.47c1.41,0,2.17-.53,2.17-1.88V242c0-1.35-.76-1.88-2.17-1.88h-2.4v28Z"/><path class="d" d="M907.83,277.58V230.67h12.61v46.91Z"/><path class="d" d="M939.38,278.76c-9.62,0-15.42-4.34-15.42-11.61v-5.34h11v4c0,1.82,1.41,3.11,3.81,3.11s3.52-1.06,3.52-3c0-3.87-2.93-5.34-9.56-9.5-5.92-3.69-8.44-9-8.44-14.31,0-6.39,5.22-12.61,15.42-12.61,8.27,0,14,5.22,14,11.61v4.75h-11V242a2.77,2.77,0,0,0-2.8287-2.71H939.71c-1.64,0-3.34.94-3.34,2.76,0,4.69,1.64,5.45,8.33,9.09,6.16,3.34,9.67,9.21,9.67,15C954.39,272.6,949.06,278.76,939.38,278.76Z"/><path class="d" d="M972.86,268.38c1.52,0,2.87-.76,2.87-2v-6.45h12.84v7.8c0,4.81-6.16,11-15.72,11s-16-6.22-16-11V240.52c0-4.81,6.51-11,16-11s15.72,6.22,15.72,11v7.8H975.74v-6.45c0-1.23-1.35-2-2.87-2s-2.81.76-2.81,2v24.51C970,267.62,971.34,268.38,972.86,268.38Z"/><path class="d" d="M1007.46,278.76c-8.91,0-15.54-5.22-15.54-11.61v-26c0-6.39,6.63-11.61,15.54-11.61s15.54,5.22,15.54,11.61v26C1023,273.54,1016.37,278.76,1007.46,278.76Zm0-38.88c-1.47,0-2.64.76-2.64,2v24.51c0,1.23,1.17,2,2.64,2s2.64-.76,2.64-2V241.87C1010.1,240.64,1008.93,239.88,1007.46,239.88Z"/><path class="d" d="M1039.65,266.38c0,1.23,1.17,2,2.58,2s2.64-.76,2.64-2V230.67h12.43v36.47c0,6.39-6.16,11.61-15.07,11.61s-15.54-5.22-15.54-11.61V230.67h13Z"/><path class="d" d="M1082.34,230.67h11.2v46.91h-10.38l-10.55-22v22h-11.26V230.67h10.91l10.09,22.46Z"/><path class="d" d="M1096.53,240.17v-9.5h30.08v9.5H1118v37.41h-12.61V240.17Z"/><path class="d" d="M1144.09,278.76c-9.62,0-15.42-4.34-15.42-11.61v-5.34h11v4c0,1.82,1.41,3.11,3.81,3.11s3.52-1.06,3.52-3c0-3.87-2.93-5.34-9.56-9.5-5.92-3.69-8.44-9-8.44-14.31,0-6.39,5.22-12.61,15.42-12.61,8.27,0,14,5.22,14,11.61v4.75h-11V242a2.77,2.77,0,0,0-2.8287-2.71h-.1713c-1.64,0-3.34.94-3.34,2.76,0,4.69,1.64,5.45,8.33,9.09,6.16,3.34,9.67,9.21,9.67,15C1159.1,272.6,1153.76,278.76,1144.09,278.76Z"/><path class="d" d="M1162.15,245.16V230.67h12.43v14.48l-2.81,18.47H1165Zm.47,21.7h11.32v10.73h-11.32Z"/><g class="e"><path class="f" d="M605.87,319.23s0,22.1-22.1,22.1H181.1s-22.1,0-22.1-22.1V81.53s0-22.1,22.1-22.1H583.77s22.1,0,22.1,22.1Z"/><path class="g" d="M334.92,91.92v-1.7h-4.27V87.33h3.44l-.27-1.74h-3.17V83.12h4.11v-1.7h-6.1v10.5Zm4.27-5.4-3.47,5.4h2.12l2.46-4,2.56,4.1,2.12-.38-3.46-5.28,3.18-5h-2.13L340.42,85l-2.25-3.66-2.11.38Zm14.16-1.87c0-2.12-1.45-3.23-3.85-3.23h-3.08v10.5h2V88.06h.9c2.4,0,4-1.15,4-3.41m-2,0c0,1.2-.76,1.74-2.06,1.74h-.88V83h1c1.29,0,2,.57,2,1.66m9.75,7.23v-1.7h-4.26V87.33h3.44L360,85.59h-3.17V83.12H361v-1.7h-6.1v10.5Zm6.67-7.24c0,1.09-.78,1.69-2,1.69h-1V83h1.11c1.26,0,1.93.6,1.93,1.65m-.12,2.84a2.94,2.94,0,0,0,2.1-3c0-2-1.42-3.15-3.76-3.15H362.8v10.5h2v-4h.92L368.41,92l2.06-.38Zm6.21-6.1h-2v10.5h2Zm8.54,10.5v-1.7H378.2V87.33h3.44l-.27-1.74H378.2V83.12h4.11v-1.7h-6.1v10.5Zm10.12,0V81.42h-1.88V88.3L386,81.42h-2v10.5h1.88V84.69l4.94,7.23Zm9.87-.71-.27-1.74a4.83,4.83,0,0,1-2.66.88c-1.86,0-3.08-1.37-3.08-3.68s1.14-3.7,3-3.7a4.22,4.22,0,0,1,2.56.93l.29-1.9a5.51,5.51,0,0,0-2.94-.76c-3,0-5,2.19-5,5.45s1.91,5.41,5,5.41a5.75,5.75,0,0,0,3.08-.89m8.12.71v-1.7H406.3V87.33h3.44l-.28-1.74H406.3V83.12h4.1v-1.7h-6.1v10.5Z"/><path class="g" d="M296.14,145.91V112.72c0-9.41-4.56-14.83-13.22-14.83-5.61,0-9.7,3-13.88,7.23L268,98.84H252.78v47.07h16.93V115.58c1.9-1.81,3.61-2.86,5.61-2.86,2.75,0,3.9,2,3.9,4.76v28.43Zm26.15-60.67c0-5.52-4.08-8.84-9.41-8.84s-9.42,3.32-9.42,8.84S307.65,94,312.88,94s9.41-3.33,9.41-8.75m-1,13.6H304.42v47.07h16.92Zm47.08,31.95c0-8.65-4.09-11.79-17-15.31-6.27-1.71-7.13-2.47-7.13-3.9,0-1.23,1.05-2.09,3.71-2.09,4.38,0,10.46,1.62,16,4.57l1.9-12.27a44.9,44.9,0,0,0-18.07-3.62c-12.08,0-18.73,6.09-18.73,15.31,0,9,5.23,12.18,17.3,15.32,5.9,1.52,6.76,2.37,6.76,3.89s-1.24,2.48-4.57,2.48c-4.85,0-12.17-2-18.26-5.61l-1.9,12.26a45.4619,45.4619,0,0,0,20.35,4.76c12.65,0,19.69-5.33,19.69-15.79m48.4-8.18c0-13.88-6.37-24.72-21.2-24.72-13.13,0-22.73,9.32-22.73,24.82,0,16.55,10.27,24.15,25.2,24.15A37.54,37.54,0,0,0,416.82,142l-1.52-11.23c-5.23,2.67-10.37,4.28-14.93,4.28-5.51,0-9.7-2-10.65-7.89h26.82a28.33,28.33,0,0,0,.28-4.57m-15.88-4.08h-11.5c.09-6.85,2.28-10.28,5.7-10.28s5.61,3.43,5.8,10.28m67.33,25.67-12.84-23.77,12.75-21.59H450.39L440.22,118V77.25l-16.93,2.66v66h16.93V125.09l10.65,21.49Zm46.21-21.87c0-14.93-9.7-24.44-22.92-24.44s-23,9.6-23,24.53,9.6,24.44,22.82,24.44,23.11-9.6,23.11-24.53m-16.07.09c0,6.76-2.57,10.85-6.94,10.85s-6.85-4.19-6.85-10.94,2.57-10.75,6.85-10.75,6.94,4.09,6.94,10.84"/><path class="c" d="M255.32,171.39H265.5c4.72,0,7.12-1,7.12-4.2s-2.4-4.23-7.12-4.23H255.32Zm-2.84-11h13.77c4.75,0,9.08,1.36,9.08,6.73s-4.33,6.75-9.08,6.75H255.32v10h-2.84Z"/></g><path class="c" d="M299.86,175.3l-6.3-12.64-6.3,12.64Zm-8.05-14.87h3.49l12.06,23.5h-3.2l-3-6.1H286l-3.07,6.1h-3.17Z"/><g class="e"><path class="c" d="M317.67,177.21C319,179,321.29,182,328.34,182c3.62,0,8.57-1,8.57-4.69,0-7.14-20.5-.88-20.5-10.41,0-5,4.62-7.05,11-7.05,6.21,0,10,2.56,11.64,4.82L337,166.35c-1-1.1-3.23-4.11-9.63-4.11-4.72,0-8.05,1.23-8.05,4.21,0,7.11,20.49.32,20.49,10.86,0,3.94-3.81,7.21-11.79,7.21-7.7,0-10.54-3.2-12.55-5.43Z"/><path class="c" d="M351,177.21c1.35,1.81,3.62,4.79,10.67,4.79,3.62,0,8.56-1,8.56-4.69,0-7.14-20.49-.88-20.49-10.41,0-5,4.62-7.05,11-7.05,6.21,0,10,2.56,11.64,4.82l-2.07,1.68c-1-1.1-3.23-4.11-9.63-4.11-4.72,0-8.05,1.23-8.05,4.21,0,7.11,20.49.32,20.49,10.86,0,3.94-3.81,7.21-11.8,7.21-7.69,0-10.53-3.2-12.54-5.43Z"/><path class="c" d="M387,171.39h10.18c4.73,0,7.12-1,7.12-4.2s-2.39-4.23-7.12-4.23H387Zm-2.84-11h13.77c4.75,0,9.08,1.36,9.08,6.73s-4.33,6.75-9.08,6.75H387v10h-2.84Z"/><path class="c" d="M429.7,182c5.73,0,10.86-3,10.86-10.19,0-5.23-4-9.57-10.86-9.57s-10.86,4.34-10.86,9.57c0,7.15,5.08,10.19,10.86,10.19m0-22.15c8,0,13.77,4.66,13.77,12.48,0,8.34-7,12.19-13.77,12.19s-13.77-3.85-13.77-12.19c0-7.82,5.79-12.48,13.77-12.48"/><path class="c" d="M457.34,171h10.09c4.1,0,7.17-.58,7.17-4s-3.07-4-7.17-4H457.34Zm-2.85-10.57h13.58c3.75,0,9.25.81,9.25,6.57,0,4.91-4.56,6.33-7.41,6.46l7.76,10.47h-3.52l-7.57-10.4h-9.24v10.4h-2.85Z"/></g><polygon class="c" points="497.45 162.96 486.1 162.96 486.1 160.43 511.64 160.43 511.64 162.96 500.3 162.96 500.3 183.94 497.45 183.94 497.45 162.96"/><path class="d" d="M306.38,207.79c-2.15,0-3.15-1.39-3.15-3.6v-8h1.11v7.89c0,1.61.56,2.72,2.06,2.72s2.07-1.08,2.07-2.7v-7.9h1.07v7.94C309.54,206.43,308.42,207.79,306.38,207.79Z"/><path class="d" d="M315.23,207.64v-5.87c0-.74-.3-1.19-1-1.19a2.91,2.91,0,0,0-1.86,1.08v6h-1.06V199.8h.78l.17,1a3.33,3.33,0,0,1,2.18-1.16c1.2,0,1.81.67,1.81,1.91v6.1Z"/><path class="d" d="M318,207.64v-11.7l1.06-.2v11.9Z"/><path class="d" d="M323.38,207.79c-1.8,0-2.86-1.61-2.86-4.06s1.07-4.1,2.88-4.1,2.92,1.63,2.92,4.08S325.21,207.79,323.38,207.79Zm0-7.24c-1.24,0-1.8,1.42-1.8,3.16s.59,3.18,1.82,3.18,1.84-1.41,1.84-3.16-.61-3.18-1.86-3.18Z"/><path class="d" d="M330.18,207.77c-1.87,0-2.92-1.62-2.92-4s1.15-4.08,3-4.08a2.83,2.83,0,0,1,1.91.66l-.17,1.07a2.56,2.56,0,0,0-1.77-.78c-1.21,0-1.86,1.37-1.86,3.11s.63,3.15,1.94,3.15a2.64,2.64,0,0,0,1.77-.8l.15,1A3,3,0,0,1,330.18,207.77Z"/><path class="d" d="M337.14,207.74l-2.65-4.26v4.16h-1v-11.7l1-.2v7.42l2.39-3.36H338l-2.57,3.48,2.78,4.24Z"/><path class="d" d="M345.81,207.8c-2.55,0-3.81-2.42-3.81-5.86s1.31-5.92,3.89-5.92a4.12,4.12,0,0,1,2.64.86l-.17,1.13a3.81,3.81,0,0,0-2.48-1c-1.88,0-2.77,2.08-2.77,4.89s.83,4.9,2.8,4.9a3.12,3.12,0,0,0,1.84-.53v-3.71h-1.94l-.17-1h3.17v5.23A5.25,5.25,0,0,1,345.81,207.8Z"/><path class="d" d="M351.58,202.1v5.54h-1.06V199.8h.78l.18,1.21a2.67,2.67,0,0,1,2.09-1.34l.16,1A2.68,2.68,0,0,0,351.58,202.1Z"/><path class="d" d="M359.48,203.93h-4.26c0,1.79.75,2.95,1.93,2.95a3.3,3.3,0,0,0,2.13-.85l.17.95a3.79,3.79,0,0,1-2.4.81c-1.78,0-2.89-1.56-2.89-4.08,0-2.3,1.06-4.08,2.77-4.08s2.55,1.75,2.55,3.9Zm-2.55-3.43c-1,0-1.56,1.14-1.67,2.62h3.16c-.06-1.58-.61-2.62-1.49-2.62Z"/><path class="d" d="M364.64,207.64l-.13-.88a2.91,2.91,0,0,1-2.11,1,1.88,1.88,0,0,1-1.94-2.09c0-1.79,1.41-2.72,3.91-3v-.71c0-1-.48-1.36-1.26-1.36a3.74,3.74,0,0,0-2,.68l-.15-1a4.6193,4.6193,0,0,1,2.29-.67,1.94,1.94,0,0,1,2.14,2.23v5.78Zm-.27-4.14c-2.07.26-2.86,1.07-2.86,2.15,0,.78.43,1.23,1.06,1.23a2.54,2.54,0,0,0,1.8-1Z"/><path class="d" d="M369.3,207.75c-1.1,0-1.83-.41-1.83-1.74V200.7h-1v-.9h1v-2.72l1-.18v2.9h1.44l.15.9H368.5v5.15c0,.69.25,1,1,1a3.1881,3.1881,0,0,0,.58-.07l.13.88A3.3536,3.3536,0,0,1,369.3,207.75Z"/><path class="d" d="M376.67,202.5h-1v5.14h-1.1V196.2h2.09c2.16,0,3.5,1.2,3.5,3.12a2.92,2.92,0,0,1-2.34,3l3,5.16-1.08.24Zm-.2-.89c1.71,0,2.55-.86,2.55-2.26s-.82-2.18-2.45-2.18h-.94v4.44Z"/><path class="d" d="M386.6,203.93h-4.26c.05,1.79.75,2.95,1.92,2.95a3.32,3.32,0,0,0,2.14-.85l.17.95a3.8,3.8,0,0,1-2.41.81c-1.77,0-2.88-1.56-2.88-4.08,0-2.3,1.06-4.08,2.77-4.08s2.55,1.75,2.55,3.9Zm-2.55-3.43c-1,0-1.56,1.14-1.68,2.62h3.17c-.07-1.58-.61-2.62-1.49-2.62Z"/><path class="d" d="M389.67,207.79a4.1805,4.1805,0,0,1-2.21-.63l.17-1a3.81,3.81,0,0,0,2.09.73,1.2,1.2,0,0,0,1.34-1.21c0-.63-.32-1.06-1.44-1.65-1.38-.7-1.94-1.3-1.94-2.39a2,2,0,0,1,1.9951-2.0049c.0483,0,.0967.0015.1449.0049a3.74,3.74,0,0,1,1.85.45l-.16,1a3.3286,3.3286,0,0,0-1.69-.51,1,1,0,0,0-1.13,1c0,.6.28,1,1.46,1.59,1.37.7,1.92,1.35,1.92,2.47a2.17,2.17,0,0,1-2.4,2.15Z"/><path class="d" d="M395.86,207.79c-1.8,0-2.86-1.61-2.86-4.06s1.08-4.1,2.88-4.1,2.92,1.63,2.92,4.08S397.69,207.79,395.86,207.79Zm0-7.24c-1.24,0-1.8,1.42-1.8,3.16s.6,3.18,1.82,3.18,1.84-1.41,1.84-3.16-.61-3.18-1.86-3.18Z"/><path class="d" d="M401.15,202.1v5.54h-1.06V199.8h.78l.18,1.21a2.67,2.67,0,0,1,2.09-1.34l.17,1A2.7,2.7,0,0,0,401.15,202.1Z"/><path class="d" d="M406.59,207.75c-1.09,0-1.82-.41-1.82-1.74V200.7h-1v-.9h1v-2.72l1-.18v2.9h1.45l.14.9h-1.59v5.15c0,.69.25,1,1,1a3.0766,3.0766,0,0,0,.58-.07l.14.88A3.4407,3.4407,0,0,1,406.59,207.75Z"/><path class="d" d="M413.6,207.64h-1.77V196.2h1.77c3.21,0,4.74,2.23,4.74,5.69S416.73,207.64,413.6,207.64Zm.1-10.47h-.78v9.51h.78c2.19,0,3.53-1.63,3.53-4.76S415.9,197.17,413.7,197.17Z"/><path class="d" d="M420.46,198.06a.76.76,0,1,1,.7294-.7894l.0006.0294A.75.75,0,0,1,420.46,198.06Zm-.53,9.58V199.8H421v7.84Z"/><path class="d" d="M424.56,207.79a4.18,4.18,0,0,1-2.21-.63l.17-1a3.8,3.8,0,0,0,2.08.73,1.21,1.21,0,0,0,1.35-1.21c0-.63-.32-1.06-1.44-1.65-1.38-.7-1.94-1.3-1.94-2.39a2,2,0,0,1,1.9958-2.0043q.0672,0,.1342.0043a3.7492,3.7492,0,0,1,1.86.45l-.17,1a3.27,3.27,0,0,0-1.69-.51,1,1,0,0,0-1.12,1c0,.6.28,1,1.46,1.59,1.37.7,1.92,1.35,1.92,2.47a2.17,2.17,0,0,1-2.4,2.15Z"/><path class="d" d="M430.8,207.77c-1.87,0-2.91-1.62-2.91-4s1.14-4.08,3-4.08a2.81,2.81,0,0,1,1.91.66l-.17,1.07a2.56,2.56,0,0,0-1.77-.78c-1.21,0-1.86,1.37-1.86,3.11s.63,3.15,1.94,3.15a2.66,2.66,0,0,0,1.78-.8l.15,1A3.08,3.08,0,0,1,430.8,207.77Z"/><path class="d" d="M436.36,207.79c-1.81,0-2.87-1.61-2.87-4.06s1.08-4.1,2.88-4.1,2.92,1.63,2.92,4.08S438.18,207.79,436.36,207.79Zm0-7.24c-1.25,0-1.81,1.42-1.81,3.16s.6,3.18,1.82,3.18,1.84-1.41,1.84-3.16-.61-3.18-1.85-3.18Z"/><path class="d" d="M444.69,207.64l-.15-1a3.4,3.4,0,0,1-2.18,1.16c-1.18,0-1.81-.66-1.81-1.92V199.8h1v5.87c0,.76.32,1.17,1,1.17a2.87,2.87,0,0,0,1.84-1.06v-6h1v7.84Z"/><path class="d" d="M451,207.64v-5.87c0-.74-.29-1.19-1-1.19a2.89,2.89,0,0,0-1.85,1.08v6h-1.06V199.8h.78l.16,1a3.35,3.35,0,0,1,2.19-1.16c1.19,0,1.8.67,1.8,1.91v6.1Z"/><path class="d" d="M456,207.75c-1.1,0-1.83-.41-1.83-1.74V200.7h-1v-.9h1v-2.72l1-.18v2.9h1.44l.15.9h-1.59v5.15c0,.69.25,1,1,1a3.1881,3.1881,0,0,0,.58-.07l.14.88A3.439,3.439,0,0,1,456,207.75Z"/><path class="d" d="M459.73,207.79a4.18,4.18,0,0,1-2.21-.63l.17-1a3.81,3.81,0,0,0,2.09.73,1.2,1.2,0,0,0,1.34-1.21c0-.63-.32-1.06-1.44-1.65-1.38-.7-1.94-1.3-1.94-2.39a2,2,0,0,1,1.9951-2.0049c.0483,0,.0967.0015.1449.0049a3.74,3.74,0,0,1,1.85.45l-.16,1a3.3286,3.3286,0,0,0-1.69-.51,1,1,0,0,0-1.13,1c0,.6.28,1,1.46,1.59,1.37.7,1.92,1.35,1.92,2.47a2.17,2.17,0,0,1-2.4,2.15Z"/><g class="e"><path class="h" d="M546.25,260.34a33.94,33.94,0,1,1-33.94-34.06,33.94,33.94,0,0,1,33.94,34.06Zm-85.13,0a33.95,33.95,0,1,1-33.94-34.06,33.95,33.95,0,0,1,33.94,34.06Zm-85.8,0a33.94,33.94,0,1,1-33.94-34.06,33.94,33.94,0,0,1,33.94,34.06Zm-86.73,0a33.94,33.94,0,1,1-33.94-34.06,33.94,33.94,0,0,1,33.94,34.06Z"/><path class="g" d="M261.08,259.69a4.11,4.11,0,0,1-3.16-1.23,4.5,4.5,0,0,1-1-3.38c.1-1.1.25-2.2.4-3.27.46-3.39.89-6.59,0-9.79a1,1,0,0,1,1.91-.52c1,3.59.49,7.14,0,10.58-.15,1-.29,2.13-.39,3.19a2.52,2.52,0,0,0,.48,1.86,2.22,2.22,0,0,0,1.7.58,2.79,2.79,0,0,0,2.6-2.47,1,1,0,0,1,2,0,4.76,4.76,0,0,1-4.57,4.45"/><path class="g" d="M244.52,246.08h-4.28c-.81,0-1.48.38-1.48.92s.67,1,1.48,1l4.19.15c.06-.71.1-1.58.09-2.07"/><path class="g" d="M261.31,246.08a21.781,21.781,0,0,1-.11,2.49l16.06.35v-2.84Z"/><path class="g" d="M260.89,242a16.6419,16.6419,0,0,1,.36,2.6h16v-3.09Z"/><path class="g" d="M244.08,242.47v-.07l-3.83.08c-.81,0-1.48.54-1.48,1.08s.67,1,1.49,1h4.2a9.5881,9.5881,0,0,0-.37-2.13"/><path class="g" d="M245.11,260.39h2a28.5021,28.5021,0,0,1,.33-8.31c.47-3.44.95-7,0-10.58a1,1,0,1,0-1.9.52c.87,3.2.43,6.4,0,9.79a31.5035,31.5035,0,0,0-.37,8.58"/><path class="g" d="M249.06,260.39h2a28.8584,28.8584,0,0,1,.34-8.31c.46-3.44,1-7,0-10.58a.9849.9849,0,1,0-1.9.52c.86,3.2.43,6.4,0,9.79a31.5,31.5,0,0,0-.37,8.58"/><path class="g" d="M253,260.39h2a28.8584,28.8584,0,0,1,.34-8.31c.46-3.44.94-7,0-10.58a.9849.9849,0,1,0-1.9.52c.86,3.2.43,6.4,0,9.79a31.5,31.5,0,0,0-.37,8.58"/><path class="g" d="M277.26,261.87H232.84a17.33,17.33,0,0,0,15.3,17.1v3.14a2,2,0,0,0,2,2H260a2,2,0,0,0,2-2V279a17.36,17.36,0,0,0,15.3-17.13"/><path class="g" d="M359.24,263.54v-11.6a2.32,2.32,0,0,0-2.32-2.32H342.58v16h15.31a2.33,2.33,0,0,0,1.35-2.09M342.58,282.6h13a2.3,2.3,0,0,0,2.31-2.29V268H342.58ZM324.91,268v12.3a2.3,2.3,0,0,0,2.29,2.31h13.02V268Zm15.31-2.37H324.91a2.32,2.32,0,0,1-1.34-2.09v-11.6a2.31,2.31,0,0,1,2.3-2.32h14.35Z"/><path class="g" d="M345.93,244.29a6.2111,6.2111,0,0,1-1.36,1.05,7.83,7.83,0,0,0-2-5.08c1.59-1.38,3.52-1.75,4.47-.8s.51,3.18-1.14,4.83m-10.2-4.83c.95-1,2.88-.58,4.47.8a7.76,7.76,0,0,0-2,5.08,6.26,6.26,0,0,1-1.37-1.05c-1.65-1.65-2.16-3.81-1.14-4.83m5.37,6c-.82-.82-.65-2.38.3-3.82,1,1.44,1.13,3,.31,3.82a1.8387,1.8387,0,0,1-.31.24,1.7564,1.7564,0,0,1-.3-.24m8-8c-1.62-1.62-5-.93-7.66,1.52-2.69-2.45-6-3.14-7.66-1.52s-.85,5.31,1.9,8.06a7.39,7.39,0,0,0,11.52,0c2.75-2.75,3.6-6.36,1.9-8.06"/><path class="g" d="M398.76,269.13c0,7.91,12.55,14.32,28,14.32s28.05-6.41,28.05-14.32c0-2.58-1.34-5-3.67-7.08a6.3241,6.3241,0,0,1,.29,1.89c0,7-11.05,12.6-24.67,12.6s-24.67-5.64-24.67-12.6a6.6571,6.6571,0,0,1,.29-1.89c-2.33,2.08-3.66,4.5-3.66,7.08"/><path class="g" d="M411,266.12c15.12-6.8-1.13-17.75,5.27-25.36C406.07,249,413.61,258,411,266.12"/><path class="g" d="M437.29,266.12c15.11-6.8-1.13-17.75,5.27-25.36-10.21,8.26-2.66,17.21-5.27,25.36"/><path class="g" d="M424.11,267.68c17.17-8.52-1.28-22.23,6-31.76-11.59,10.34-3,21.56-6,31.76"/></g><path class="c" d="M229.36,323.46H227.5l-.93-3.61-.91,3.61h-1.87l-1.73-6.17,2-.24.87,3.78.89-3.69h1.75l.9,3.67.84-3.67h1.8Z"/><path class="c" d="M238.71,323.46h-1.86l-.93-3.61-.92,3.61h-1.87l-1.72-6.17,2-.24.86,3.78.89-3.69h1.76l.9,3.67.84-3.67h1.8Z"/><path class="c" d="M248.05,323.46h-1.86l-.92-3.61-.92,3.61h-1.87l-1.73-6.17,2-.24.87,3.78.89-3.69h1.75l.9,3.67.84-3.67h1.81Z"/><path class="c" d="M250.19,323.46v-2.22h2.09v2.22Z"/><path class="c" d="M258.87,320.79h-3.79a1.38,1.38,0,0,0,1.54,1.38,4.2305,4.2305,0,0,0,2.08-.66l.19,1.37a4.55,4.55,0,0,1-2.51.71,3.2969,3.2969,0,0,1-.25-6.58c1.93,0,2.8,1.44,2.8,3.28A3.16,3.16,0,0,1,258.87,320.79Zm-2.81-2.52c-.55,0-.93.48-1,1.45h2c-.06-.96-.41-1.45-1-1.45Z"/><path class="c" d="M263.37,323.55l-1.09-1.95-1,1.86h-1.86l1.92-3.12-1.83-3,2-.24,1,1.79,1-1.7h1.85l-1.83,3,1.93,3.2Z"/><path class="c" d="M269.53,323.52a4.0022,4.0022,0,0,1-1.33-.22v2.26l-1.95.3v-8.72H268l.13.84a2.41,2.41,0,0,1,1.81-1c1.31,0,2.27,1,2.27,3.12C272.18,322.53,270.92,323.52,269.53,323.52Zm-.25-4.77a1.44,1.44,0,0,0-1.08.65v2.39a1.7994,1.7994,0,0,0,.89.2c.66,0,1.15-.51,1.15-1.73C270.24,319.2,269.84,318.75,269.28,318.75Z"/><path class="c" d="M278.69,320.79H274.9a1.4,1.4,0,0,0,1.4119,1.388q.0692-.0006.1381-.008a4.2305,4.2305,0,0,0,2.08-.66l.19,1.37a4.55,4.55,0,0,1-2.51.71,3.2969,3.2969,0,0,1-.25-6.58c1.94,0,2.8,1.44,2.8,3.28A2.2878,2.2878,0,0,1,278.69,320.79Zm-2.81-2.52c-.54,0-.93.48-1,1.45h2c-.07-.96-.4-1.45-1-1.45Z"/><path class="c" d="M281.72,320v3.51h-1.94v-6.32h1.7l.2,1.25a2.24,2.24,0,0,1,1.85-1.38l.32,2A3.08,3.08,0,0,0,281.72,320Z"/><path class="c" d="M285.65,316.31a1.05,1.05,0,1,1,1.11-1,1,1,0,0,1-.9939,1.006A.9782.9782,0,0,1,285.65,316.31Zm-1,7.15v-6.32h2v6.32Z"/><path class="c" d="M293.44,320.79h-3.79a1.39,1.39,0,0,0,1.3907,1.3893,1.4127,1.4127,0,0,0,.1593-.0093,4.19,4.19,0,0,0,2.07-.66l.2,1.37a4.59,4.59,0,0,1-2.52.71,3.3,3.3,0,0,1-.27-6.58c1.94,0,2.8,1.44,2.8,3.28A2.2912,2.2912,0,0,1,293.44,320.79Zm-2.81-2.52c-.54,0-.93.48-1,1.45h2c-.07-.96-.41-1.45-1-1.45Z"/><path class="c" d="M298.19,323.46v-4c0-.45-.19-.76-.65-.76a1.59,1.59,0,0,0-1.07.57v4.15h-2V317.1h1.72l.14.86a2.84,2.84,0,0,1,2-1c1.18,0,1.8.74,1.8,2v4.49Z"/><path class="c" d="M304.19,323.57a2.92,2.92,0,0,1-3.05-3.22,3,3,0,0,1,3.13-3.31,3.7093,3.7093,0,0,1,1.88.47l-.26,1.67a2.42,2.42,0,0,0-1.43-.47c-.78,0-1.35.53-1.35,1.59a1.41,1.41,0,0,0,1.42,1.61,2.56,2.56,0,0,0,1.44-.49l.23,1.59A3.72,3.72,0,0,1,304.19,323.57Z"/><path class="c" d="M312.57,320.79h-3.79a1.39,1.39,0,0,0,1.3907,1.3893,1.4127,1.4127,0,0,0,.1593-.0093,4.19,4.19,0,0,0,2.07-.66l.2,1.37a4.59,4.59,0,0,1-2.52.71,3.3,3.3,0,0,1-.27-6.58c1.94,0,2.8,1.44,2.8,3.28A2.2912,2.2912,0,0,1,312.57,320.79Zm-2.81-2.52c-.54,0-.93.48-1,1.45h2c-.07-.96-.41-1.45-1-1.45Z"/><path class="c" d="M317.32,323.46v-4c0-.45-.18-.76-.65-.76a1.59,1.59,0,0,0-1.07.57v4.15h-2V317.1h1.72l.14.86a2.84,2.84,0,0,1,2-1c1.18,0,1.8.74,1.8,2v4.49Z"/><path class="c" d="M321.6,316.31a1.05,1.05,0,1,1,1.1-1,1,1,0,0,1-1.1,1Zm-1,7.15v-6.32h2v6.32Z"/><path class="c" d="M326.3,323.56a5.66,5.66,0,0,1-2.6-.63l.23-1.48a4.88,4.88,0,0,0,2.38.74c.55,0,.8-.18.8-.47s-.18-.47-1.07-.69c-1.58-.41-2.25-.83-2.25-2s.87-2,2.42-2a5.87,5.87,0,0,1,2.33.46L328.3,319a4.57,4.57,0,0,0-2.08-.6c-.46,0-.67.17-.67.42s.18.39,1.07.64c1.68.45,2.27.88,2.27,2.05C328.89,322.84,328,323.56,326.3,323.56Z"/><path class="c" d="M335.36,320.79h-3.79a1.4,1.4,0,0,0,1.4119,1.388q.0692-.0006.1381-.008a4.2305,4.2305,0,0,0,2.08-.66l.19,1.37a4.55,4.55,0,0,1-2.51.71,3.2969,3.2969,0,0,1-.25-6.58c1.94,0,2.8,1.44,2.8,3.28A2.2878,2.2878,0,0,1,335.36,320.79Zm-2.81-2.52c-.54,0-.93.48-1,1.45h2c-.07-.96-.4-1.45-1-1.45Z"/><path class="c" d="M340.22,323.55l-1.83-3v2.94h-1.94v-9l1.94-.31v5.58l1.69-2.59h2.09l-2,2.87,2.06,3.25Z"/><path class="c" d="M345.41,323.59a3.3,3.3,0,1,1,2.9863-3.5863q.0135.1477.0137.2963a3,3,0,0,1-3,3.29Zm0-5c-.75,0-1.15.66-1.15,1.69s.41,1.71,1.15,1.71,1.16-.68,1.16-1.7-.4-1.68-1.15-1.68Z"/><path class="c" d="M349.35,323.46v-2.22h2.09v2.22Z"/><path class="c" d="M355.35,323.57a2.92,2.92,0,0,1-3.06-3.22,3,3,0,0,1,3.13-3.31,3.7093,3.7093,0,0,1,1.88.47l-.25,1.67a2.46,2.46,0,0,0-1.43-.47c-.79,0-1.36.53-1.36,1.59a1.41,1.41,0,0,0,1.42,1.61,2.56,2.56,0,0,0,1.44-.49l.24,1.59A3.7688,3.7688,0,0,1,355.35,323.57Z"/><path class="c" d="M361,323.59a3,3,0,0,1-3.0131-2.9869q-.0006-.1468.0131-.2931a3,3,0,1,1,3,3.28Zm0-5c-.75,0-1.15.66-1.15,1.69S360.28,322,361,322s1.16-.68,1.16-1.7-.39-1.69-1.16-1.69Z"/><path class="c" d="M372.29,323.46v-4c0-.45-.17-.76-.62-.76a1.62,1.62,0,0,0-1,.55v4.17h-1.94v-4c0-.45-.17-.76-.62-.76a1.58,1.58,0,0,0-1,.55v4.17h-2v-6.32h1.72l.14.86a2.65,2.65,0,0,1,2-1,1.56,1.56,0,0,1,1.57,1,2.84,2.84,0,0,1,2-1c1.18,0,1.8.74,1.8,2v4.49Z"/><g class="e"><path class="g" d="M516.37,252a3.09,3.09,0,1,1-3.08,3.1v-.01a3.09,3.09,0,0,1,3.08-3.09m18.51-7.71h-5.7l6.48-6.17-1.55-1.54-8.1,7.71h-37.4l21.59,21.6v17.74s0,4.62-5.39,4.62h-1.55v1.55h17v-1.55h-1.54s-5.4,0-5.4-4.62V265.88Z"/></g></svg>